<svg id="visual" viewBox="0 0 1920 1080" width="1920" height="1080" xmlns="http://www.w3.org/2000/svg" xmlns:xlink="http://www.w3.org/1999/xlink" version="1.1"><rect x="0" y="0" width="1920" height="1080" fill="#002233"></rect><path d="M0 840L45.7 854.5C91.3 869 182.7 898 274.2 891C365.7 884 457.3 841 548.8 827.8C640.3 814.7 731.7 831.3 823 850.5C914.3 869.7 1005.7 891.3 1097 871.8C1188.3 852.3 1279.7 791.7 1371.2 766.5C1462.7 741.3 1554.3 751.7 1645.8 784.3C1737.3 817 1828.7 872 1874.3 899.5L1920 927L1920 1081L1874.3 1081C1828.7 1081 1737.3 1081 1645.8 1081C1554.3 1081 1462.7 1081 1371.2 1081C1279.7 1081 1188.3 1081 1097 1081C1005.7 1081 914.3 1081 823 1081C731.7 1081 640.3 1081 548.8 1081C457.3 1081 365.7 1081 274.2 1081C182.7 1081 91.3 1081 45.7 1081L0 1081Z" fill="#0066FF" stroke-linecap="round" stroke-linejoin="miter"></path></svg>